<?xml version="1.0" standalone="no"?><!DOCTYPE svg PUBLIC "-//W3C//DTD SVG 1.1//EN" "http://www.w3.org/Graphics/SVG/1.1/DTD/svg11.dtd"><svg t="1727230204667" class="icon" viewBox="0 0 1024 1024" version="1.1" xmlns="http://www.w3.org/2000/svg" p-id="6668" width="64" height="64" xmlns:xlink="http://www.w3.org/1999/xlink"><path d="M337.4 315.9C416.1 174 589.7 107.6 745.6 167.2c111.6 42.6 191.8 142.5 209.5 260.6 2.6 17.2 17.4 29.5 34.2 29.5 1.7 0 3.4-0.1 5.2-0.4 18.9-2.8 32-20.5 29.2-39.4-21.4-142.7-118.5-263.5-253.4-315-198.8-76-421.5 17.4-508.1 208.9-48.8 3.5-96 19.8-137.6 47.9C-4.8 446.7-39 623.1 48.5 752.6c52.8 78.1 140.5 124.7 234.7 124.7h139.3c19.1 0 34.7-15.5 34.7-34.7S441.6 808 422.5 808H283.2c-71.2 0-137.5-35.2-177.3-94.2-66.1-97.8-40.3-231.1 57.5-297.1 34.4-23.3 73.9-35.8 114.5-36.7 4.7 1 9.4 1 13.9 0.1 10.7 0.5 21.4 1.7 32 3.8 56.1 10.9 104.6 42.9 136.7 90.3 10.7 15.8 32.3 20 48.1 9.3 15.9-10.7 20-32.3 9.3-48.1-42.2-62.6-106.3-105-180.5-119.5z" fill="#1afa29" p-id="6669"></path><path d="M756.5 841.3l-34.6 34.2c-22.6 22.6-59.5 22.6-82.1 0-11-11-17-25.6-17-41.1s6-30.1 17-41.1l68.9-68.9c22.7-22.7 59.6-22.8 82.3-0.2 10.8 10.8 28.4 10.8 39.2-0.1 10.8-10.8 10.8-28.4-0.1-39.2-44.4-44.2-116.5-44.1-160.8 0.4L600.6 754c-44.3 44.2-44.3 116.3 0 160.5 22.1 22.1 51.2 33.2 80.3 33.2 29 0 58.1-11 80.1-33.1l34.5-34.1c10.9-10.8 11-28.3 0.2-39.2-10.7-10.7-28.3-10.8-39.2 0z" fill="#1afa29" p-id="6670"></path><path d="M827.2 559.9l-36.6 36.3c-10.9 10.8-11 28.3-0.2 39.2 10.8 10.9 28.3 10.9 39.2 0.2l36.2-35.9c23-22.2 59.7-21.6 82 1.3 22.2 23 21.6 59.8-1.7 82.3l-68.9 68.8-0.4 0.4c-22.6 22.5-59.3 22.5-81.9-0.1-10.8-10.8-28.4-10.8-39.2 0-10.8 10.8-10.8 28.4 0 39.2 22.1 22 51.1 33.1 80.1 33.1 29.1 0 58.3-11.1 80.5-33.4l0.4-0.4 68.2-68.2c44.9-43.5 46.1-115.4 2.6-160.4-43.3-44.8-115.3-46-160.3-2.4z" fill="#1afa29" p-id="6671"></path></svg>