<?xml version="1.0" encoding="utf-8"?>
<!-- Generator: Adobe Illustrator 23.0.0, SVG Export Plug-In . SVG Version: 6.00 Build 0)  -->
<svg version="1.1" id="图层_1" xmlns="http://www.w3.org/2000/svg" xmlns:xlink="http://www.w3.org/1999/xlink" x="0px" y="0px"
	 viewBox="0 0 1000 1000" style="enable-background:new 0 0 1000 1000;" xml:space="preserve">
<style type="text/css">
	.st0{fill:url(#SVGID_1_);}
</style>
<linearGradient id="SVGID_1_" gradientUnits="userSpaceOnUse" x1="111.5031" y1="549.8231" x2="901.5762" y2="549.8231">
	<stop  offset="9.496934e-03" style="stop-color:#3D7EFF"/>
	<stop  offset="1" style="stop-color:#31C9E8"/>
</linearGradient>
<path class="st0" d="M688.5,331.7c11.2,1.5,43.7,3.6,67,3.6c43.5,0,85.1,1.2,106,1.8c25.2,0.7,40.1,0,40.1,6.7
	c0,5.1-26.3,4.4-37.6,4.6c-15.2,0.2-35,1-87.5,3.3C685,355.9,659.3,398,650,459c-23.3,152.2-128.5,200.3-128.5,200.3
	c-36.6-196.1-7.3-353.7,90.2-353.7C650.6,305.7,670.1,329.3,688.5,331.7z M526.8,363.9c-8.1,5.2-10,7.1-79.1-43.2
	C351,250.3,275,226.7,185.7,218c-122.3-11.9-69.6,78.2-10.5,94.9c9.3,2.6,103-18.4,216.9,21.7c52.7,18.5,99.4,46.9,120.8,64.4
	c1.6,1.1,1.8-2,7.1-16.8C525.4,367.3,528.9,362.6,526.8,363.9z M513.4,404.6c0-2.6-161.2-127-337-79.5
	c-22.8,6.2,24.1,82.3,74.3,74.7C361.6,382.8,397.6,384.6,513.4,404.6z M512.1,410c0-2.3-141.7-40.1-255.6-0.5
	c-22.3,7.8,34.4,68.2,73,51.3C361,447,417.3,423.8,512.1,410z M510.3,418.2c-6.2-0.4-128.7,14.8-162.7,43.6
	c-24.2,20.5,40.8,50.1,82.1,24.5C445.5,476.5,509.4,421.9,510.3,418.2z M507.6,433.2c-5,0.8-80.3,53.3-80.5,75.5
	c-0.2,18.7,67.3,28.2,71.5-17.4C500.1,474.7,505.2,439,507.6,433.2z M542.4,653.8c38.3,91.1,150.3,169.9,145,120.8
	C683.1,734.7,635.7,729.3,542.4,653.8z M546.3,651c24.2,21.9,138.3,104.8,123.8,56C661.2,677.4,615.3,665,546.3,651z M553,645.9
	c23,13,123.7,35.5,85-5C588.3,588.8,576.6,630.6,553,645.9z M523.3,665.4c45.3,162.5,187.8,268.1,175.4,192.3
	c-14-85.7-82.5-55-160.1-201.3l-0.1,0C530.6,661.7,525,664.5,523.3,665.4L523.3,665.4z"/>
</svg>
