<?xml version="1.0" encoding="utf-8"?>
<!-- Generator: Adobe Illustrator 25.0.0, SVG Export Plug-In . SVG Version: 6.00 Build 0)  -->
<svg version="1.1" id="图层_1" xmlns="http://www.w3.org/2000/svg" xmlns:xlink="http://www.w3.org/1999/xlink" x="0px" y="0px"
	 viewBox="0 0 263.1 115" style="enable-background:new 0 0 263.1 115;" xml:space="preserve">
<style type="text/css">
	.st0{fill:#0A64A6;}
</style>
<path class="st0" d="M58.7,59.2V30.4h7.4v6.1c0.7-2.3,1.6-4.1,2.9-5.2c1.3-1.1,3-1.7,5-1.7c0.2,0,0.5,0,1.1,0.1c0.2,0,0.3,0,0.4,0.1
	v7.8h-0.1c-0.7-0.1-1.3-0.1-1.6-0.1c-2.1,0-3.8,0.7-5,2c-1.2,1.4-1.8,3.2-1.8,5.6v14.1H58.7z"/>
<path class="st0" d="M79.2,22.6h8.6V29h-8.6V22.6z M79.2,30.4h8.6v28.8h-8.6V30.4z"/>
<path class="st0" d="M98.1,44.7c-1.4-0.8-2.5-1.8-3.3-2.9c-0.8-1.2-1.1-2.5-1.1-3.9c0-2.8,1.2-5.1,3.5-6.8c2.3-1.7,5.4-2.6,9.2-2.6
	c1,0,2.1,0.1,3,0.3c1,0.2,1.9,0.4,2.9,0.8c0.2-2.1,0.9-4.4,2-5.4c1.1-1,2.8-1.5,4.9-1.5c0.3,0,1,0,2.1,0.1c0.3,0,0.6,0,0.7,0.1
	l0,5.9c-0.1,0-0.4,0-0.5,0c-0.8-0.1-1.4-0.1-1.7-0.1c-1.1,0-2,0.2-2.6,0.5c-0.6,0.3-1,1.6-1.1,2.3c1,1,1.8,2,2.3,3.1
	c0.5,1.1,0.8,2.2,0.8,3.4c0,2.8-1.1,5-3.3,6.7c-2.2,1.6-5.2,2.4-8.9,2.4c-0.9,0-1.7,0-2.4-0.1c-0.7-0.1-1.4-0.2-2-0.4
	c-0.6,0.3-1.1,0.6-1.4,0.9c-0.3,0.3-0.5,0.7-0.5,1.1c0,0.7,0.2,1.2,0.7,1.5c0.5,0.3,1.2,0.5,2.2,0.6l8.8,0.4
	c3.1,0.1,5.5,0.9,7.3,2.4c1.8,1.4,2.7,3.3,2.7,5.6c0,2.8-1.3,5-3.9,6.6c-2.6,1.6-6.3,2.4-11.1,2.4c-5.4,0-9.4-0.6-12-1.8
	c-2.6-1.2-3.9-3.1-3.9-5.7c0-1.3,0.4-2.4,1.2-3.4c0.8-1,1.8-1.7,3.2-2.1c-0.9-0.5-1.6-1.1-2.1-1.9c-0.5-0.7-0.7-1.6-0.7-2.5
	c0-1.4,0.4-2.6,1.3-3.6C95.1,46,96.4,45.2,98.1,44.7 M100.6,56.8c-0.6,0.3-1.1,0.7-1.4,1.2c-0.3,0.5-0.5,1-0.5,1.6
	c0,1.2,0.7,2.1,2,2.7c1.3,0.6,3.5,0.8,6.4,0.8c2.7,0,4.6-0.3,5.8-0.8c1.1-0.5,1.7-1.3,1.7-2.5c0-0.8-0.3-1.4-1-1.8
	c-0.6-0.4-1.7-0.7-3-0.8L100.6,56.8z M106.5,32.9c-1.4,0-2.5,0.4-3.4,1.3c-0.9,0.9-1.3,2-1.3,3.4c0,1.5,0.4,2.6,1.3,3.5
	c0.8,0.8,2,1.3,3.4,1.3c1.5,0,2.6-0.4,3.5-1.3c0.8-0.8,1.2-2,1.2-3.5c0-1.4-0.4-2.6-1.3-3.5C109,33.3,107.9,32.9,106.5,32.9"/>
<path class="st0" d="M125.2,22.6h8.6V29h-8.6V22.6z M125.2,30.4h8.6v28.8h-8.6V30.4z"/>
<path class="st0" d="M137.9,59.2V30.4h7.7V35c0.9-1.7,2.1-3.1,3.6-4c1.5-0.9,3.1-1.4,5.1-1.4c3.2,0,5.5,0.9,7,2.7
	c1.5,1.8,2.3,4.5,2.3,8.2v18.6h-8.3V41.1c0-1.8-0.3-3.1-1-4c-0.7-0.9-1.6-1.4-2.9-1.4c-1.5,0-2.8,0.6-3.7,1.8
	c-0.9,1.2-1.4,2.8-1.4,4.7v17H137.9z"/>
<path class="st0" d="M184.8,41.3c-0.3-1.9-0.8-3.3-1.6-4.3c-0.8-1-1.9-1.5-3.1-1.5c-1.8,0-3.1,0.8-4,2.3c-0.9,1.6-1.4,3.9-1.4,6.9
	c0,3,0.5,5.3,1.4,6.9c0.9,1.6,2.2,2.4,4,2.4c1.3,0,2.5-0.5,3.3-1.6c0.9-1,1.4-2.5,1.6-4.3l7.3,0.8c-0.4,3.3-1.7,6-4,8
	c-2.3,2-5.2,3-8.7,3c-4.1,0-7.4-1.4-10-4.2c-2.6-2.8-3.9-6.4-3.9-10.9c0-4.6,1.3-8.3,4-11.1c2.6-2.8,6.1-4.2,10.5-4.2
	c3.3,0,6,1,8.2,2.9c2.2,1.9,3.5,4.6,3.9,8L184.8,41.3z"/>
<path class="st0" d="M223.4,50.4c-0.9,3.1-2.7,5.4-5.1,7.1c-2.5,1.7-5.5,2.5-9,2.5c-4.5,0-8.1-1.4-10.8-4.2c-2.7-2.8-4.1-6.4-4.1-11
	c0-4.4,1.4-8.1,4.3-10.9c2.9-2.8,6.5-4.3,11-4.3c4.3,0,7.7,1.4,10.2,4.1c2.5,2.7,3.7,6.5,3.7,11.3v1.2h-20.2c0,2.5,0.5,4.4,1.6,5.8
	c1.1,1.3,2.6,2,4.6,2c1.4,0,2.6-0.4,3.6-1.1c1-0.8,1.7-1.8,2.1-3.2L223.4,50.4z M203.5,41.6l11.4,0c0-2.1-0.6-3.6-1.5-4.8
	c-1-1.1-2.4-1.7-4.2-1.7c-1.7,0-3,0.6-4,1.7C204.1,38,203.6,39.5,203.5,41.6"/>
<rect x="226.9" y="20.4" class="st0" width="8.6" height="38.8"/>
<rect x="239.6" y="20.4" class="st0" width="8.6" height="38.8"/>
<path class="st0" d="M31.8,58.9C31.8,58.9,31.8,58.9,31.8,58.9c-0.4-0.2-0.8-0.3-1.2-0.5c0,0,0,0,0,0l-0.1,0c-6.5-2.8-11-9-11-16.2
	c0-7.7,4.7-14.1,11.8-16.6c-2.1-0.7-4.3-1.2-6.6-1.2c-3.6,0-6.6,0.9-9.5,2.5C11.4,31.1,9,36.8,9,43c0,4.8,1.4,9.3,3.8,13
	c0.1,0.1,0.2,0.1,0.2,0.2h0c8.3,13.3,22.6,10.3,22.6,10.3C51,63.5,54.1,51.1,54.1,51.1C45.9,62.7,35.3,60.2,31.8,58.9"/>
<path class="st0" d="M15.3,26.1c2.9-1.6,6.3-2.5,9.9-2.5c0.6,0,1.1,0,1.7,0.1c0,0,0.1,0,0.1,0c10,0.8,17.9,8.4,17.9,17.7
	c0,7.7-4.2,12.9-11.9,16.3c3.6,1.3,13.5,2.9,21.2-7.4c0.9-2.5,1.4-5.3,1.4-8.1c0-13.1-10.4-23.7-23.3-23.7
	C25.6,18.6,19.5,21.5,15.3,26.1"/>
<path class="st0" d="M175.3,48.5"/>
<g>
	<path class="st0" d="M151.4,75.3h-25.1v7.5c0,5.5-0.4,13.4-3.6,18.9c-0.4-0.4-1.4-1-1.9-1.2c3-5.2,3.3-12.5,3.3-17.7v-9.6h27.4
		V75.3z M134.3,93.7c-1.7,2.5-4.1,5.3-6,7.2c-0.4-0.3-1.4-1-1.9-1.3c2-1.7,4.3-4.3,5.9-6.6L134.3,93.7z M140.1,91.2v8.6
		c0,1.2-0.3,1.8-1.2,2.2c-1,0.4-2.7,0.3-5.3,0.3c-0.1-0.6-0.4-1.4-0.7-2c2.1,0.1,3.9,0.1,4.4,0c0.5,0,0.7-0.2,0.7-0.6v-8.6h-8.4
		V79.1h6.8c0.5-1.1,1-2.4,1.3-3.3l2.6,0.4c-0.5,1-1.1,2-1.5,2.9h10v12.1H140.1z M131.7,84.2h14.7v-3.3h-14.7V84.2z M131.7,89.3h14.7
		V86h-14.7V89.3z M145,93c2.1,2.1,4.8,5,6.2,6.8l-1.9,1.2c-1.3-1.8-4-4.8-6.1-7.1L145,93z"/>
	<path class="st0" d="M166.1,73.3c1.8,2.3,3.8,5.4,4.5,7.4l-1.9,0.9c-0.2-0.5-0.5-1.1-0.8-1.8c-9.5,0.6-10.6,0.8-11.4,1.1
		c-0.1-0.5-0.5-1.6-0.8-2.2c0.5-0.1,1-0.5,1.6-1.3c0.6-0.7,2.5-3.4,3.7-6.1l2.3,0.7c-1.2,2.4-2.8,4.7-4.3,6.5l7.9-0.4
		c-0.8-1.4-1.7-2.8-2.6-4L166.1,73.3z M169.1,99.6c0,1.2-0.2,1.9-1.1,2.2c-0.9,0.4-2.4,0.4-4.5,0.4c-0.1-0.6-0.5-1.5-0.8-2.1
		c1.7,0.1,3.1,0.1,3.6,0c0.4,0,0.6-0.1,0.6-0.6v-4.3h-7.6v7h-2.1v-19h11.9V99.6z M159.2,85.3v3.1h7.6v-3.1H159.2z M166.8,93.5v-3.3
		h-7.6v3.3H166.8z M176.3,86.1c-3.1,0-4-0.7-4-3.3V71.3h2.3v5.8c3-1,6.2-2.3,8.2-3.3l1.6,1.7c-2.7,1.2-6.4,2.5-9.8,3.5v3.7
		c0,1.1,0.3,1.3,1.9,1.3h5.7c1.4,0,1.6-0.6,1.8-4c0.5,0.4,1.4,0.8,2,0.9c-0.3,4.1-1,5.2-3.6,5.2H176.3z M182.3,100
		c1.4,0,1.7-0.7,1.9-4.5c0.5,0.4,1.4,0.7,2,0.9c-0.3,4.5-1,5.7-3.7,5.7h-6.1c-3.1,0-4-0.7-4-3.3V87.1h2.2v5.5c3.2-1,6.7-2.3,8.7-3.6
		l1.5,1.7c-2.6,1.5-6.6,2.8-10.1,3.8v4.2c0,1.1,0.3,1.3,2,1.3H182.3z"/>
	<path class="st0" d="M189.3,86.3l1.8,1.3c0.7-1,1.3-2,1.8-3c0.6-1,1.2-2.1,1.7-3.2l0.1-0.1h8.3v7.1h-10.2v2h10.2v8.2h-13v2h27.6v-2
		h-12.5v-8.2h10v-2h-10v-7.1h11v-2h-11V73l-2.2-0.1v6.4h-7.4l0.1-0.3c0.3-0.7,0.6-1.4,0.8-2.2c0.2-0.7,0.5-1.4,0.7-2.2l-1.9-0.5
		c-0.6,2.3-1.4,4.5-2.5,6.4C191.8,82.5,190.6,84.4,189.3,86.3z"/>
	<g>
		<path class="st0" d="M230.5,89.1l-0.5-1.7c-0.3,0.1-0.7,0.3-1,0.5c-0.5,0.2-1,0.4-1.5,0.6l-0.3,0.1v-7.4h2.9v-1.8h-2.9v-6.6
			l-1.9-0.1v6.7h-2.7l0-0.3c0.1-0.7,0.2-1.2,0.2-1.8c0-0.5,0.1-1,0.1-1.5l-1.7-0.2c0,0.8-0.1,1.8-0.2,2.8c-0.1,1.1-0.3,2.2-0.4,3.2
			c-0.2,1.1-0.4,2.1-0.5,3.1c-0.2,0.9-0.4,1.7-0.6,2.4l1.7,0.3c0.2-0.9,0.4-1.8,0.6-2.8c0.2-1,0.4-2.1,0.6-3.3l0-0.2h3v8.2l-0.1,0.1
			c-1.1,0.4-2.1,0.8-3.2,1.2c-1,0.3-1.9,0.6-2.8,0.9l0.6,1.8c0.7-0.2,1.6-0.5,2.4-0.9c0.9-0.4,1.9-0.7,2.8-1.1l0.3-0.1v10.9h1.9
			V90.5l2-0.9C229.8,89.4,230.2,89.3,230.5,89.1z"/>
		<path class="st0" d="M247.3,84c0-1.1,0.1-2,0.1-2.9c0-0.9,0.1-1.6,0.1-2.2c0-0.4,0-0.7,0-0.9H235l0.1-0.3c0.4-1.1,0.7-2,1-2.8
			c0.2-0.7,0.4-1.2,0.4-1.5l-1.9-0.5c-0.2,0.9-0.5,1.9-0.8,3c-0.4,1.1-0.8,2.2-1.2,3.4c-0.5,1.1-1,2.2-1.5,3.2
			c-0.5,0.9-0.9,1.7-1.4,2.4l1.8,0.9c0.5-0.7,0.9-1.5,1.4-2.5c0.5-1,1-2.1,1.4-3.1l0.1-0.1h2.7l-0.1,0.3c-0.4,1.6-0.8,3.1-1.3,4.4
			c-0.5,1.3-1.1,2.6-1.8,3.7c-0.7,1.1-1.4,2.1-2.3,3c-0.8,0.8-1.6,1.7-2.5,2.4l1.4,1.4c2.2-2,4-4.3,5.4-6.9c1.4-2.6,2.4-5.3,2.8-8.1
			l0-0.2h3.1l-0.1,0.3c-0.4,2.1-0.8,3.9-1.2,5.5c-0.4,1.7-1,3.3-1.7,4.8s-1.7,3.1-2.9,4.6c-1.2,1.5-2.8,3.1-4.7,4.8l1.5,1.4
			c1.9-1.7,3.5-3.4,4.8-5c1.3-1.6,2.3-3.3,3.1-5c0.8-1.7,1.4-3.5,1.8-5.3c0.4-1.8,0.8-3.9,1.1-6l0-0.2h2v0.2c0,0.2,0,0.7,0,1.5
			c0,0.8-0.1,1.7-0.1,2.8c-0.1,1.1-0.1,2.3-0.2,3.5c-0.1,1.2-0.1,2.4-0.2,3.5c-0.1,1.1-0.1,2.1-0.1,2.9c-0.1,1-0.1,1.4-0.1,1.5
			c0,0.6-0.1,1.1-0.3,1.5c-0.1,0.4-0.4,0.7-0.7,1c-0.3,0.2-0.7,0.4-1.1,0.5c-0.4,0.1-1,0.2-1.6,0.3l-2.1,0.2l0.7,1.9l2.1-0.2
			c0.9-0.1,1.6-0.2,2.2-0.4c0.6-0.2,1.1-0.4,1.4-0.7c0.4-0.3,0.7-0.7,0.9-1.2c0.2-0.5,0.3-1.1,0.4-1.9c0-0.2,0-0.5,0.1-1.1
			c0-0.6,0-1.3,0.1-2.2c0-0.9,0.1-1.8,0.1-2.9c0-1.1,0.1-2.2,0.1-3.3C247.2,86.2,247.2,85.1,247.3,84z"/>
	</g>
</g>
</svg>
